<svg id="Layer_2" data-name="Layer 2" xmlns="http://www.w3.org/2000/svg" viewBox="0 0 1027.38 273.04"><defs><style>.cls-1{fill:#fff;}</style></defs><title>holoDesktop</title><path class="cls-1" d="M164.65,379.32V489.94H307.17V379.32h38.47v264.4H307.17v-124H164.65v124h-38V379.32Z" transform="translate(-126.62 -375)"/><path class="cls-1" d="M663.47,508.77c0,91-61.64,139.27-136.83,139.27-77.82,0-132.46-54.14-132.46-134.17C394.18,429.92,452.32,375,531,375,611.45,375,663.47,430.31,663.47,508.77Zm-228.64,4.32c0,56.49,34.1,107.09,94,107.09,60.33,0,94.43-49.82,94.43-109.84,0-52.56-30.6-107.49-94-107.49C466.31,402.85,434.83,455,434.83,513.09Z" transform="translate(-126.62 -375)"/><path class="cls-1" d="M712.89,379.32h38V615.08h125.9v28.64H712.89Z" transform="translate(-126.62 -375)"/><path class="cls-1" d="M1154,508.77c0,91-61.64,139.27-136.83,139.27-77.82,0-132.46-54.14-132.46-134.17,0-83.95,58.14-138.87,136.83-138.87C1102,375,1154,430.31,1154,508.77Zm-228.64,4.32c0,56.49,34.1,107.09,94,107.09,60.33,0,94.43-49.82,94.43-109.84,0-52.56-30.6-107.49-94-107.49C956.84,402.85,925.36,455,925.36,513.09Z" transform="translate(-126.62 -375)"/></svg>